<svg xmlns="http://www.w3.org/2000/svg" width="1290" height="2796" viewBox="0 0 1290 2796" fill="none">
  <defs>
    <linearGradient id="paper" x1="130" y1="0" x2="1180" y2="2796" gradientUnits="userSpaceOnUse"><stop stop-color="#EFF3FF"/><stop offset=".4" stop-color="#F8F8F3"/><stop offset="1" stop-color="#DFE8D7"/></linearGradient>
    <radialGradient id="blue" cx="0" cy="0" r="1" gradientTransform="translate(980 580) rotate(151) scale(770 940)"><stop stop-color="#315FE8" stop-opacity=".31"/><stop offset="1" stop-color="#315FE8" stop-opacity="0"/></radialGradient>
  </defs>
  <rect width="1290" height="2796" fill="url(#paper)"/>
  <rect width="1290" height="2796" fill="url(#blue)"/>
  <path d="M-104 1710C190 1450 425 1464 649 1650c199 166 357 225 818-44" stroke="#315FE8" stroke-opacity=".14" stroke-width="3"/>
  <path d="M-65 1840C225 1600 451 1634 677 1814c201 160 410 201 734-9" stroke="#315FE8" stroke-opacity=".08" stroke-width="2"/>
  <g transform="translate(112 176)"><rect width="196" height="196" rx="58" fill="#315FE8"/><path d="M45 18h68c35 0 55 23 55 54h-32c0-14-8-22-23-22H45V18Zm0 56h68c35 0 55 23 55 54h-32c0-14-8-22-23-22H45V74Zm0 56h90v32H45v-32Z" fill="#fff"/></g>
  <text x="112" y="690" fill="#192636" font-family="Helvetica Neue, Arial, sans-serif" font-size="92" font-weight="600" letter-spacing="-3">A little more</text>
  <text x="112" y="790" fill="#192636" font-family="Helvetica Neue, Arial, sans-serif" font-size="92" font-weight="600" letter-spacing="-3">perspective.</text>
  <text x="112" y="2700" fill="#315FE8" font-family="Helvetica Neue, Arial, sans-serif" font-size="25" font-weight="600" letter-spacing="7">BUFFER · READ-ONLY BY DESIGN</text>
</svg>
